<svg width="16" height="16" viewBox="0 0 16 16" fill="none" xmlns="http://www.w3.org/2000/svg">
<g opacity="0.7">
<path d="M13.5264 4.43865C13.3083 3.66052 12.8768 3.04452 12.2438 2.60879C11.4448 2.05839 10.5259 1.86319 9.7323 1.74479C8.63417 1.58105 7.6395 1.55812 6.6923 1.67385C5.80377 1.78265 5.13497 1.95652 4.5243 2.23705C3.32803 2.78639 2.61017 3.67599 2.39097 4.88025C2.2843 5.46479 2.21283 5.99332 2.17123 6.49732C2.07523 7.66265 2.16217 8.69412 2.43737 9.64985C2.7051 10.5816 3.17337 11.2477 3.86883 11.6851C4.04643 11.7965 4.27257 11.8771 4.4923 11.9549C4.60217 11.9939 4.70777 12.0323 4.80003 12.0728V13.9555C4.80003 14.2019 4.9995 14.4013 5.2459 14.4013C5.36217 14.4013 5.47363 14.356 5.55683 14.2749L7.2939 12.5853C7.36963 12.4989 7.36963 12.4989 7.4475 12.4973C8.0411 12.4856 8.6475 12.4627 9.25017 12.4301C9.9803 12.3901 10.8262 12.3197 11.623 11.9875C12.352 11.6829 12.8843 11.1997 13.2038 10.5517C13.5371 9.87545 13.7355 9.14265 13.8096 8.31225C13.9398 6.85199 13.847 5.58479 13.5264 4.43865ZM10.5019 9.99599C10.3275 10.2813 10.0662 10.4787 9.75897 10.6067C9.53443 10.7005 9.3051 10.6808 9.08377 10.5869C7.22563 9.80079 5.7691 8.56132 4.8059 6.78052C4.6075 6.41359 4.46937 6.01412 4.31097 5.62639C4.27843 5.54639 4.2811 5.45305 4.2667 5.36612C4.28057 4.73945 4.7611 4.38692 5.24643 4.28025C5.43203 4.23919 5.5963 4.30479 5.7339 4.43652C6.1147 4.80025 6.41603 5.22159 6.6427 5.69412C6.7419 5.90159 6.6971 6.08505 6.52803 6.23919C6.49337 6.27119 6.45657 6.30105 6.4187 6.32932C6.0331 6.61945 5.97657 6.83865 6.1819 7.27545C6.53177 8.01839 7.11257 8.51705 7.86403 8.82639C8.0619 8.90799 8.24857 8.86745 8.40003 8.70692C8.4203 8.68559 8.44323 8.66479 8.45817 8.64025C8.7547 8.14585 9.18404 8.19492 9.58084 8.47705C9.84164 8.66212 10.0944 8.85732 10.3526 9.04612C10.744 9.33465 10.7408 9.60559 10.5019 9.99599ZM8.27257 4.87759C8.17283 4.87759 8.07257 4.88559 7.97443 4.90212C7.80803 4.93039 7.65123 4.81785 7.6235 4.65145C7.59577 4.48559 7.70777 4.32825 7.87417 4.30052C8.00483 4.27919 8.13923 4.26799 8.27257 4.26799C9.59257 4.26799 10.6667 5.34212 10.6667 6.66212C10.6667 6.79599 10.6555 6.93039 10.6336 7.06105C10.6086 7.20985 10.4795 7.31545 10.3334 7.31545C10.3168 7.31545 10.2998 7.31439 10.2827 7.31119C10.1168 7.28292 10.0048 7.12612 10.0326 6.96025C10.0491 6.86319 10.0571 6.76292 10.0571 6.66265C10.0571 5.67812 9.25657 4.87759 8.27257 4.87759ZM9.60003 6.85839C9.60003 7.02639 9.4635 7.16292 9.2955 7.16292C9.1275 7.16292 8.99097 7.02639 8.99097 6.85839C8.99097 6.35439 8.58083 5.94425 8.07683 5.94425C7.90883 5.94425 7.7723 5.80772 7.7723 5.63972C7.7723 5.47172 7.90883 5.33519 8.07683 5.33519C8.9163 5.33465 9.60003 6.01839 9.60003 6.85839ZM11.6512 7.23012C11.6192 7.37199 11.4939 7.46745 11.3542 7.46745C11.3318 7.46745 11.3088 7.46479 11.2864 7.45999C11.1222 7.42265 11.0192 7.25945 11.0566 7.09572C11.1008 6.90105 11.1232 6.69999 11.1232 6.49839C11.1232 5.01679 9.9179 3.81092 8.43577 3.81092C8.23363 3.81092 8.0331 3.83332 7.83843 3.87759C7.67523 3.91545 7.51097 3.81199 7.47417 3.64772C7.43683 3.48345 7.53977 3.32025 7.70403 3.28345C7.94297 3.22852 8.18937 3.20132 8.43683 3.20132C10.2544 3.20132 11.7334 4.68025 11.7334 6.49785C11.7334 6.74532 11.7056 6.99172 11.6512 7.23012Z" fill="#111111"/>
</g>
</svg>
