<svg width="16" height="16" viewBox="0 0 16 16" fill="none" xmlns="http://www.w3.org/2000/svg">
<g opacity="0.7">
<g clip-path="url(#clip0_3082_81919)">
<path d="M15.9152 11.6817C15.8958 11.64 15.8777 11.6053 15.861 11.5776C15.5834 11.0776 15.0529 10.464 14.2698 9.73641L14.2533 9.71975L14.245 9.71158L14.2366 9.70321H14.2282C13.8728 9.36442 13.6478 9.13663 13.5535 9.02C13.3811 8.79784 13.3425 8.57297 13.4367 8.34511C13.5033 8.17296 13.7534 7.80941 14.1865 7.25394C14.4143 6.95957 14.5947 6.72363 14.7279 6.54588C15.6888 5.26847 16.1053 4.45218 15.9775 4.09671L15.9279 4.01364C15.8946 3.96363 15.8085 3.91788 15.6698 3.87615C15.5308 3.83451 15.3531 3.82763 15.1365 3.85538L12.7373 3.87195C12.6985 3.85818 12.643 3.85946 12.5707 3.87615C12.4985 3.89284 12.4623 3.90122 12.4623 3.90122L12.4206 3.92208L12.3874 3.94714C12.3597 3.96371 12.3291 3.99286 12.2958 4.03453C12.2626 4.07605 12.2348 4.12478 12.2127 4.1803C11.9515 4.8523 11.6545 5.47709 11.3212 6.05464C11.1157 6.39903 10.927 6.69749 10.7546 6.9502C10.5825 7.20282 10.4381 7.38895 10.3215 7.50826C10.2048 7.62769 10.0995 7.72336 10.0049 7.79563C9.91046 7.86794 9.83836 7.89849 9.78844 7.88731C9.7384 7.87614 9.69128 7.86505 9.64666 7.85396C9.56896 7.80395 9.50646 7.73594 9.45934 7.64986C9.41201 7.56379 9.38015 7.45545 9.36349 7.32493C9.34692 7.19433 9.33711 7.082 9.33431 6.98755C9.33171 6.89322 9.33291 6.75979 9.33854 6.58764C9.34432 6.4154 9.34692 6.29886 9.34692 6.23776C9.34692 6.02669 9.35103 5.79761 9.35929 5.55047C9.36769 5.30334 9.37449 5.10752 9.38018 4.96327C9.38584 4.81886 9.38847 4.66609 9.38847 4.50503C9.38847 4.34396 9.37866 4.21765 9.35929 4.12597C9.34015 4.03441 9.31077 3.94554 9.27205 3.85937C9.23309 3.7733 9.17608 3.70671 9.10127 3.65945C9.02631 3.61224 8.93311 3.57477 8.82221 3.54694C8.52783 3.48032 8.15298 3.44429 7.69748 3.43869C6.66455 3.4276 6.00084 3.4943 5.70649 3.6387C5.58987 3.69971 5.48433 3.78307 5.38997 3.88852C5.28998 4.01075 5.27603 4.07745 5.34821 4.08842C5.68149 4.13835 5.91742 4.25777 6.05628 4.44658L6.10632 4.54663C6.14524 4.61882 6.18411 4.74662 6.223 4.92986C6.26184 5.1131 6.2869 5.31579 6.29793 5.53784C6.32565 5.94333 6.32565 6.29043 6.29793 6.57917C6.27012 6.86804 6.24386 7.09291 6.2188 7.25397C6.19374 7.41504 6.15627 7.54555 6.10632 7.64548C6.05628 7.74545 6.02299 7.80655 6.0063 7.82872C5.98964 7.8509 5.97575 7.86487 5.96472 7.87036C5.89253 7.89802 5.81746 7.91211 5.73975 7.91211C5.66194 7.91211 5.56757 7.87319 5.45652 7.7954C5.3455 7.71761 5.23028 7.61076 5.11085 7.47468C4.99143 7.33856 4.85674 7.14835 4.70674 6.90401C4.55685 6.65968 4.40133 6.3709 4.24027 6.03769L4.10701 5.79604C4.02371 5.64058 3.90991 5.41421 3.76551 5.11715C3.62102 4.81997 3.49331 4.53251 3.38229 4.25482C3.33791 4.1382 3.27124 4.04941 3.18239 3.98831L3.14069 3.96325C3.11297 3.94107 3.06848 3.91753 3.00744 3.89243C2.94631 3.86737 2.88253 3.84939 2.81582 3.83834L0.533257 3.85491C0.300008 3.85491 0.141747 3.90775 0.0584144 4.01329L0.0250639 4.06321C0.00840327 4.09102 0 4.13543 0 4.19656C0 4.25765 0.0166606 4.33264 0.0500111 4.42143C0.383224 5.20457 0.745586 5.95984 1.1371 6.68737C1.52861 7.41489 1.86882 8.00093 2.15754 8.44496C2.44631 8.88931 2.74066 9.30869 3.04058 9.70288C3.3405 10.0972 3.53903 10.3499 3.63617 10.461C3.73342 10.5722 3.8098 10.6553 3.86533 10.7109L4.07363 10.9108C4.20692 11.0441 4.40264 11.2037 4.6609 11.3898C4.91921 11.5759 5.20518 11.7591 5.51896 11.9398C5.8328 12.1201 6.19791 12.2673 6.61448 12.3811C7.031 12.495 7.4364 12.5408 7.83074 12.5187H8.78877C8.98307 12.5019 9.13027 12.4408 9.23032 12.3354L9.26347 12.2936C9.28576 12.2605 9.30662 12.209 9.32588 12.1397C9.34537 12.0703 9.35506 11.9938 9.35506 11.9106C9.34937 11.6718 9.36755 11.4567 9.40909 11.2651C9.45061 11.0736 9.49794 10.9291 9.55087 10.8319C9.60377 10.7347 9.66347 10.6527 9.72991 10.5863C9.79649 10.5197 9.84394 10.4793 9.87177 10.4654C9.89943 10.4514 9.92152 10.442 9.93818 10.4363C10.0715 10.3919 10.2283 10.4349 10.409 10.5655C10.5895 10.696 10.7588 10.8572 10.9172 11.0487C11.0755 11.2404 11.2657 11.4555 11.4878 11.6942C11.71 11.9331 11.9044 12.1106 12.0709 12.2274L12.2375 12.3274C12.3487 12.3941 12.4931 12.4552 12.6708 12.5107C12.8483 12.5662 13.0037 12.5801 13.1372 12.5524L15.2698 12.5191C15.4807 12.5191 15.6448 12.4842 15.7612 12.4149C15.8779 12.3455 15.9472 12.269 15.9695 12.1858C15.9918 12.1025 15.993 12.008 15.9738 11.9024C15.954 11.797 15.9346 11.7234 15.9152 11.6817Z" fill="#111111"/>
</g>
</g>
<defs>
<clipPath id="clip0_3082_81919">
<rect width="16" height="16" fill="white"/>
</clipPath>
</defs>
</svg>
