<svg width="16" height="16" viewBox="0 0 16 16" fill="none" xmlns="http://www.w3.org/2000/svg">
<g opacity="0.7">
<path d="M8.00007 0.664062C5.97507 0.664062 4.33341 2.30573 4.33341 4.33073C4.33341 6.35573 5.97507 7.9974 8.00007 7.9974C10.0251 7.9974 11.6667 6.35573 11.6667 4.33073C11.6667 2.30573 10.0251 0.664062 8.00007 0.664062ZM8.00007 2.97982C8.74607 2.97982 9.35098 3.5844 9.35098 4.33073C9.35098 5.07673 8.74607 5.68164 8.00007 5.68164C7.25407 5.68164 6.64916 5.07706 6.64916 4.33073C6.64916 3.58473 7.25374 2.97982 8.00007 2.97982ZM11.0619 8.01302C10.801 8.00055 10.5416 8.06512 10.3126 8.20312C8.92924 9.03613 7.07057 9.03613 5.68757 8.20312C5.05757 7.82346 4.23683 8.02755 3.85749 8.65755C3.67383 8.96289 3.61948 9.321 3.70515 9.66667C3.79115 10.0123 4.00659 10.3043 4.31192 10.4876C4.79892 10.781 5.31991 11.0139 5.86791 11.1836L4.00333 13.1107C3.76699 13.377 3.64769 13.7192 3.66869 14.0749C3.68969 14.4305 3.84767 14.7562 4.114 14.9928C4.36867 15.2192 4.68701 15.3301 5.00268 15.3301C5.36801 15.3301 5.73005 15.1816 5.98705 14.8926L8.00007 12.8118L10.0046 14.8815C10.2573 15.1662 10.6207 15.3288 11.0014 15.3288C11.3277 15.3288 11.6421 15.2092 11.8868 14.9922C12.4361 14.5039 12.4864 13.6596 11.9884 13.0996L10.1322 11.1836C10.6802 11.0136 11.2019 10.7803 11.6889 10.487C11.9939 10.3033 12.2093 10.0123 12.295 9.66667C12.3807 9.321 12.3263 8.96255 12.1427 8.65755C11.959 8.35255 11.668 8.1371 11.3223 8.05143C11.236 8.02993 11.1489 8.01718 11.0619 8.01302Z" fill="#111111"/>
</g>
</svg>
