<svg width="16" height="16" viewBox="0 0 16 16" fill="none" xmlns="http://www.w3.org/2000/svg">
<path d="M2.5 1.5C1.67578 1.5 1 2.17578 1 3V11C1 11.8242 1.67578 12.5 2.5 12.5H4V13C4 13.8242 4.67578 14.5 5.5 14.5H13.5C14.3242 14.5 15 13.8242 15 13V5C15 4.17578 14.3242 3.5 13.5 3.5H12V3C12 2.17578 11.3242 1.5 10.5 1.5H2.5ZM2.5 2.5H10.5C10.7812 2.5 11 2.71875 11 3V11C11 11.2812 10.7812 11.5 10.5 11.5H2.5C2.21875 11.5 2 11.2812 2 11V3C2 2.71875 2.21875 2.5 2.5 2.5ZM12 4.5H13.5C13.7812 4.5 14 4.71875 14 5V13C14 13.2812 13.7812 13.5 13.5 13.5H5.5C5.21875 13.5 5 13.2812 5 13V12.5H10.5C11.3242 12.5 12 11.8242 12 11V4.5Z" fill="#298FC2"/>
</svg>
