<svg width="16" height="16" viewBox="0 0 16 16" fill="none" xmlns="http://www.w3.org/2000/svg">
<g opacity="0.7">
<path d="M14.7638 2.09784C14.5238 1.89432 14.1469 1.8652 13.7571 2.02168H13.7565C13.3465 2.18616 2.15294 6.98744 1.69726 7.1836C1.61438 7.2124 0.890536 7.48248 0.965096 8.08408C1.03166 8.62648 1.61342 8.85112 1.68446 8.87704L4.53022 9.85144C4.71902 10.4799 5.41502 12.7986 5.56894 13.294C5.66494 13.6028 5.82142 14.0086 6.09566 14.0921C6.3363 14.1849 6.57566 14.1001 6.73054 13.9785L8.47038 12.3647L11.279 14.5551L11.3459 14.5951C11.5366 14.6796 11.7193 14.7218 11.8937 14.7218C12.0285 14.7218 12.1577 14.6966 12.2813 14.646C12.7021 14.4732 12.8704 14.0722 12.888 14.0268L14.9859 3.12216C15.1139 2.53976 14.936 2.24344 14.7638 2.09784ZM7.03998 10.2412L6.07998 12.8012L5.11998 9.6012L12.48 4.1612L7.03998 10.2412Z" fill="#111111"/>
</g>
</svg>
